<?xml version="1.0" encoding="utf-8"?>
<!-- Generator: Adobe Illustrator 19.0.0, SVG Export Plug-In . SVG Version: 6.00 Build 0)  -->
<svg version="1.1" id="Layer_1" xmlns="http://www.w3.org/2000/svg" xmlns:xlink="http://www.w3.org/1999/xlink" x="0px" y="0px"
	 viewBox="0 0 96 96" style="enable-background:new 0 0 96 96;" xml:space="preserve">
<style type="text/css">
	.st0{fill:#333333;}
</style>
<g id="XMLID_2_">
	<path id="XMLID_6_" class="st0" d="M71.8,52.6V28.8c0-0.2-0.1-0.5-0.3-0.6c-0.2-0.2-0.4-0.3-0.6-0.3H25.1c-0.2,0-0.5,0.1-0.6,0.3
		c-0.2,0.2-0.3,0.4-0.3,0.6v23.8c0,0.2,0.1,0.5,0.3,0.6c0.2,0.2,0.4,0.3,0.6,0.3h45.8c0.2,0,0.5-0.1,0.6-0.3
		C71.7,53,71.8,52.8,71.8,52.6z M75.5,28.8v31.2c0,1.3-0.4,2.3-1.3,3.2c-0.9,0.9-2,1.3-3.2,1.3H55.3c0,0.7,0.2,1.4,0.5,2.2
		c0.3,0.8,0.6,1.5,0.9,2c0.3,0.6,0.5,1,0.5,1.2c0,0.5-0.2,0.9-0.5,1.3s-0.8,0.5-1.3,0.5H40.7c-0.5,0-0.9-0.2-1.3-0.5
		c-0.4-0.4-0.5-0.8-0.5-1.3c0-0.3,0.2-0.7,0.5-1.3c0.3-0.6,0.6-1.2,0.9-2c0.3-0.8,0.5-1.5,0.5-2.2H25.1c-1.3,0-2.3-0.4-3.2-1.3
		c-0.9-0.9-1.3-2-1.3-3.2V28.8c0-1.3,0.4-2.3,1.3-3.2c0.9-0.9,2-1.3,3.2-1.3h45.8c1.3,0,2.3,0.4,3.2,1.3
		C75.1,26.4,75.5,27.5,75.5,28.8z"/>
</g>
</svg>
