<svg width="218" height="251" viewBox="0 0 218 251" fill="none" xmlns="http://www.w3.org/2000/svg">
<g filter="url(#filter0_d)">
<path d="M99.4462 133.428L98.7538 128.857C98.7538 128.857 101.246 128.428 104.431 128.428C107.754 128.428 110.246 128.857 110.246 128.857L109.554 133.428C109.554 133.428 106.434 133.14 104.431 133.143C102.481 133.146 99.4462 133.428 99.4462 133.428Z" fill="#809CFF"/>
<path d="M97.6462 129L94.7385 129.571L95.4308 133.857L98.3385 133.429L97.6462 129Z" fill="#809CFF"/>
<path d="M111.354 129L113.985 129.714L113.569 133.857L110.662 133.429L111.354 129Z" fill="#809CFF"/>
<path d="M100.277 139.714L99.5846 134.429C99.5846 134.429 102.535 134.146 104.431 134.143C106.38 134.14 109.415 134.429 109.415 134.429L108.585 139.714C108.585 139.714 106.061 139.571 104.431 139.571C102.8 139.571 100.277 139.714 100.277 139.714Z" fill="#809CFF"/>
<path d="M98.4769 134.572L95.5692 135L96.5384 140.429L99.1692 139.857L98.4769 134.572Z" fill="#809CFF"/>
<path d="M110.523 134.572L113.431 135L112.462 140.429L109.831 139.857L110.523 134.572Z" fill="#809CFF"/>
<path d="M107.754 146.143H100.969L101.662 149H107.062L107.754 146.143Z" fill="#809CFF"/>
<path d="M97.3692 145L96.6769 141.571C102.548 139.971 109.369 140.905 112.046 141.571L111.215 145H97.3692Z" fill="#809CFF"/>
<path d="M118 137.572L114.815 134.572L112.6 145.143L117.862 149L118 137.572Z" fill="#809CFF"/>
<path d="M91 137.572L94.1846 134.572L96.4 145.143L91.1385 149L91 137.572Z" fill="#809CFF"/>
<path fill-rule="evenodd" clip-rule="evenodd" d="M104.439 98V99.8571C104.439 99.8571 101.843 102.465 99.5924 106C98.1592 108.251 97.0306 111.008 96.2693 113.286C94.3886 118.912 94.6078 128.429 94.6078 128.429C94.6078 128.429 99.4461 127.167 104.439 127.143C109.692 127.117 114.131 128.429 114.131 128.429C114.131 128.429 114.645 118.936 112.885 113.286C112.153 110.938 111.136 108.307 109.7 106C107.565 102.57 104.992 99.8571 104.992 99.8571V98H104.439ZM104.439 118.571C106.886 118.571 108.869 116.525 108.869 114C108.869 111.475 106.886 109.429 104.439 109.429C101.992 109.429 100.008 111.475 100.008 114C100.008 116.525 101.992 118.571 104.439 118.571Z" fill="#809CFF"/>
<ellipse cx="104.431" cy="114.143" rx="3.46154" ry="3.57143" fill="#809CFF"/>
</g>
<defs>
<filter id="filter0_d" x="-9" y="0" width="227" height="251" filterUnits="userSpaceOnUse" color-interpolation-filters="sRGB">
<feFlood flood-opacity="0" result="BackgroundImageFix"/>
<feColorMatrix in="SourceAlpha" type="matrix" values="0 0 0 0 0 0 0 0 0 0 0 0 0 0 0 0 0 0 127 0"/>
<feOffset dy="2"/>
<feGaussianBlur stdDeviation="50"/>
<feColorMatrix type="matrix" values="0 0 0 0 1 0 0 0 0 1 0 0 0 0 1 0 0 0 0.54 0"/>
<feBlend mode="normal" in2="BackgroundImageFix" result="effect1_dropShadow"/>
<feBlend mode="normal" in="SourceGraphic" in2="effect1_dropShadow" result="shape"/>
</filter>
</defs>
</svg>
